<svg width="44" height="45" viewBox="0 0 44 45" fill="none" xmlns="http://www.w3.org/2000/svg">
<path d="M33.6409 33.3034C33.5884 32.8936 33.4415 32.5016 33.2117 32.1583C32.9819 31.8149 32.6756 31.5296 32.3168 31.3248L24.0627 26.5714C23.5497 26.2766 22.954 26.1589 22.3675 26.2365C21.781 26.314 21.2364 26.5825 20.8177 27.0004L18.6823 29.1371C18.4793 29.3398 18.2083 29.46 17.9218 29.4745C17.6354 29.489 17.3537 29.3967 17.1313 29.2155C15.8439 28.1735 14.6124 27.0642 13.4422 25.8921C12.2701 24.7219 11.1608 23.4904 10.1188 22.203C9.93762 21.9806 9.84535 21.6989 9.85983 21.4125C9.8743 21.126 9.9945 20.855 10.1972 20.652L12.3339 18.5153C12.7515 18.0967 13.0198 17.5523 13.0973 16.9661C13.1748 16.3799 13.0573 15.7844 12.7629 15.2716L8.00816 7.01477C7.80326 6.65604 7.51792 6.34975 7.17459 6.11999C6.83125 5.89022 6.43929 5.74325 6.02953 5.69064C5.62035 5.63493 5.20381 5.67499 4.81274 5.80765C4.42167 5.94032 4.06674 6.16197 3.77591 6.45514L1.32566 8.90677C-2.17234 12.4048 1.47828 21.5361 9.63753 29.6954C15.7013 35.7591 22.3013 39.3341 26.7288 39.3328C28.2578 39.3328 29.5283 38.9065 30.4275 38.0073L32.8764 35.557C33.1697 35.266 33.3914 34.9108 33.5241 34.5195C33.6567 34.1282 33.6967 33.7114 33.6409 33.302V33.3034ZM31.9648 34.6454L31.6389 34.9726L24.5687 30.9384C24.4209 30.8632 24.2499 30.8477 24.0911 30.8953C23.9323 30.9428 23.7979 31.0497 23.7158 31.1937C23.6337 31.3377 23.6102 31.5078 23.6502 31.6687C23.6902 31.8296 23.7907 31.9689 23.9307 32.0576L30.6943 35.9173L29.5145 37.0956C28.1877 38.4239 25.4487 38.3593 22.0029 36.9169C18.3234 35.3796 14.2562 32.4894 10.5492 28.7838C6.84216 25.0768 3.95328 21.0095 2.41603 17.33C0.973659 13.8843 0.907659 11.1453 2.23728 9.8184L3.49541 8.55889L3.94228 9.33577C3.98454 9.40917 4.04083 9.47353 4.10796 9.52517C4.17508 9.57682 4.25173 9.61473 4.3335 9.63676C4.41528 9.65878 4.5006 9.66449 4.58458 9.65354C4.66857 9.64259 4.74957 9.61521 4.82297 9.57296C4.89637 9.5307 4.96073 9.47441 5.01238 9.40728C5.06402 9.34016 5.10194 9.26352 5.12396 9.18174C5.14599 9.09996 5.15169 9.01464 5.14074 8.93066C5.12979 8.84667 5.10241 8.76567 5.06016 8.69227L4.44003 7.61564L4.68753 7.36814C4.83883 7.21544 5.02352 7.09994 5.22705 7.03075C5.43057 6.96155 5.64739 6.94055 5.86041 6.96939C6.29628 7.02714 6.67166 7.27877 6.89166 7.65964L11.645 15.9151C11.9599 16.4638 11.8678 17.1568 11.4209 17.6036L10.6399 18.3846L6.43791 11.0848C6.35258 10.9365 6.21185 10.8283 6.04669 10.7838C5.88153 10.7393 5.70546 10.7622 5.55722 10.8476C5.40898 10.9329 5.30071 11.0736 5.25623 11.2388C5.21175 11.404 5.2347 11.58 5.32003 11.7283L9.69666 19.3293L9.28416 19.7418C8.85628 20.1694 8.60205 20.7405 8.57056 21.3446C8.53907 21.9487 8.73256 22.5431 9.11366 23.0129C10.1845 24.3359 11.3246 25.6013 12.5292 26.8038C13.7321 28.0084 14.998 29.1485 16.3214 30.2193C16.7914 30.6005 17.386 30.794 17.9904 30.7625C18.5948 30.731 19.166 30.4768 19.5939 30.0488L19.8909 29.7518L21.4818 30.6593C21.5552 30.7017 21.6363 30.7292 21.7203 30.7401C21.8044 30.7511 21.8898 30.7452 21.9716 30.723C22.0534 30.7008 22.13 30.6625 22.197 30.6105C22.264 30.5585 22.32 30.4938 22.3618 30.42C22.4038 30.3464 22.4309 30.2653 22.4415 30.1813C22.4522 30.0972 22.4462 30.0119 22.4238 29.9302C22.4015 29.8484 22.3632 29.7719 22.3113 29.705C22.2594 29.638 22.1948 29.582 22.1212 29.54L20.8355 28.8071L21.7293 27.9134C21.9471 27.6959 22.2305 27.5562 22.5356 27.5156C22.8408 27.4751 23.1507 27.5362 23.4178 27.6893L31.6747 32.4426C32.0555 32.6626 32.3072 33.0366 32.3635 33.4725C32.3924 33.6855 32.3714 33.9024 32.3022 34.1059C32.233 34.3094 32.1175 34.4941 31.9648 34.6454Z" fill="#1A1A1A"/>
<path d="M20.6184 22.2044H15.7894C16.0149 20.3207 17.2208 19.0419 18.4899 17.6958C19.8539 16.252 21.2633 14.7574 21.2633 12.5134C21.2622 11.6119 20.9036 10.7476 20.2662 10.1102C19.6287 9.47273 18.7644 9.11413 17.8629 9.11304C16.9612 9.11376 16.0966 9.47221 15.4588 10.1097C14.8211 10.7472 14.4623 11.6117 14.4612 12.5134C14.4612 12.6844 14.5291 12.8485 14.6501 12.9694C14.771 13.0903 14.935 13.1583 15.1061 13.1583C15.2771 13.1583 15.4411 13.0903 15.5621 12.9694C15.683 12.8485 15.7509 12.6844 15.7509 12.5134C15.7509 11.3488 16.6983 10.4028 17.8629 10.4028C19.0262 10.4028 19.9736 11.3488 19.9736 12.5134C19.9736 14.2459 18.8516 15.4339 17.5536 16.8117C16.1043 18.3475 14.4612 20.0883 14.4612 22.8479C14.4612 23.2054 14.7499 23.4942 15.1074 23.4942H20.6184C20.7895 23.4942 20.9535 23.4262 21.0744 23.3053C21.1954 23.1843 21.2633 23.0203 21.2633 22.8493C21.2633 22.6783 21.1954 22.5142 21.0744 22.3933C20.9535 22.2724 20.7895 22.2044 20.6184 22.2044Z" fill="#1A1A1A"/>
<path d="M28.8862 18.76H28.1533V9.75648C28.1533 9.58545 28.0854 9.42142 27.9644 9.30049C27.8435 9.17955 27.6795 9.11161 27.5084 9.11161C27.3374 9.11161 27.1734 9.17955 27.0524 9.30049C26.9315 9.42142 26.8636 9.58545 26.8636 9.75648V18.7572H23.4302L24.7034 9.84723C24.7155 9.76336 24.7108 9.67794 24.6898 9.59586C24.6688 9.51377 24.6319 9.43663 24.581 9.36883C24.5302 9.30103 24.4665 9.24391 24.3937 9.20072C24.3208 9.15753 24.2401 9.12912 24.1562 9.11711C24.0723 9.1051 23.9869 9.10973 23.9048 9.13073C23.8227 9.15174 23.7456 9.1887 23.6778 9.23952C23.61 9.29034 23.5529 9.35401 23.5097 9.4269C23.4665 9.4998 23.4381 9.58048 23.4261 9.66436L22.0483 19.3114C22.0356 19.4027 22.0425 19.4958 22.0687 19.5842C22.0949 19.6727 22.1397 19.7545 22.2002 19.8242C22.2606 19.8938 22.3352 19.9498 22.4191 19.9882C22.503 20.0267 22.5941 20.0467 22.6863 20.047H26.8649V22.8465C26.8649 22.9312 26.8816 23.015 26.914 23.0933C26.9464 23.1715 26.9939 23.2426 27.0538 23.3025C27.1137 23.3624 27.1848 23.4099 27.263 23.4423C27.3413 23.4747 27.4251 23.4914 27.5098 23.4914C27.5945 23.4914 27.6784 23.4747 27.7566 23.4423C27.8348 23.4099 27.9059 23.3624 27.9658 23.3025C28.0257 23.2426 28.0732 23.1715 28.1056 23.0933C28.138 23.015 28.1547 22.9312 28.1547 22.8465V20.047H28.8876C29.0586 20.047 29.2226 19.979 29.3436 19.8581C29.4645 19.7372 29.5324 19.5731 29.5324 19.4021C29.5324 19.2311 29.4645 19.0671 29.3436 18.9461C29.2226 18.8252 29.0586 18.7572 28.8876 18.7572L28.8862 18.76Z" fill="#1A1A1A"/>
<path d="M43.8766 9.37704C43.8166 9.29512 43.7382 9.22852 43.6476 9.18264C43.5571 9.13677 43.457 9.11292 43.3555 9.11304H38.532C38.3609 9.11304 38.1969 9.18098 38.076 9.30192C37.955 9.42285 37.8871 9.58688 37.8871 9.75791C37.8871 9.92894 37.955 10.093 38.076 10.2139C38.1969 10.3348 38.3609 10.4028 38.532 10.4028H42.4755L38.6076 22.654C38.5607 22.8157 38.5789 22.9893 38.6582 23.1377C38.7376 23.2861 38.8718 23.3977 39.0323 23.4485C39.1928 23.4993 39.3668 23.4853 39.5171 23.4096C39.6674 23.3339 39.7822 23.2024 39.8368 23.0432L43.9701 9.95179C44.0004 9.85525 44.0076 9.75294 43.9911 9.65312C43.9746 9.55329 43.9349 9.45872 43.8752 9.37704H43.8766Z" fill="#1A1A1A"/>
<path d="M35.9495 7.06978C35.785 7.02411 35.6092 7.0455 35.4605 7.12927C35.3117 7.21303 35.2023 7.35234 35.1561 7.51666L30.3326 24.7413C30.2907 24.9046 30.3144 25.0778 30.3987 25.2238C30.4829 25.3698 30.621 25.477 30.7833 25.5225C30.9456 25.568 31.1193 25.5481 31.2671 25.4671C31.415 25.3861 31.5252 25.2504 31.5742 25.0892L36.3964 7.86453C36.4192 7.78291 36.4256 7.6976 36.4154 7.61348C36.4053 7.52936 36.3786 7.44806 36.3369 7.37425C36.2953 7.30044 36.2396 7.23556 36.1728 7.18332C36.1061 7.13108 36.0297 7.09249 35.9481 7.06978H35.9495Z" fill="#1A1A1A"/>
</svg>
