<svg width="28" height="29" viewBox="0 0 28 29" fill="none" xmlns="http://www.w3.org/2000/svg">
<g clip-path="url(#clip0_3_892)">
<path d="M25.424 22.0656C25.0157 23.0167 24.5114 23.9236 23.919 24.7723C23.1269 25.901 22.4788 26.6821 21.9795 27.1161C21.2054 27.8278 20.3753 28.193 19.4869 28.2134C18.8493 28.2134 18.0805 28.032 17.185 27.6639C16.2867 27.2975 15.4613 27.1155 14.7065 27.1155C13.9149 27.1155 13.0661 27.2975 12.1579 27.6639C11.2485 28.032 10.5158 28.2239 9.95579 28.2425C9.10412 28.2793 8.25479 27.9042 7.40662 27.1161C6.86587 26.6436 6.18979 25.8351 5.37896 24.6895C4.50921 23.4656 3.79404 22.047 3.23404 20.4288C2.63437 18.6817 2.33337 16.9895 2.33337 15.3515C2.33337 13.4749 2.73879 11.8567 3.55079 10.5005C4.18954 9.41079 5.03829 8.55212 6.10112 7.92096C7.14382 7.29699 8.33356 6.9612 9.54862 6.94796C10.2253 6.94796 11.1125 7.15737 12.2156 7.56862C13.3152 7.98104 14.021 8.19046 14.3308 8.19046C14.5618 8.19046 15.3464 7.94546 16.6758 7.45779C17.9335 7.00512 18.9945 6.81787 19.8637 6.89196C22.2198 7.08212 23.9896 8.01079 25.1662 9.68379C23.0598 10.9601 22.0174 12.748 22.0384 15.0417C22.057 16.8285 22.7051 18.3154 23.9791 19.4955C24.5566 20.0438 25.2012 20.4673 25.9181 20.7677C25.7678 21.2057 25.603 21.6386 25.424 22.0656ZM20.0212 0.805456C20.0212 2.20546 19.5096 3.51329 18.49 4.72312C17.2591 6.16221 15.771 6.99346 14.157 6.86221C14.1353 6.68609 14.1244 6.50882 14.1243 6.33137C14.1243 4.98737 14.7094 3.54887 15.7489 2.37229C16.268 1.77671 16.9272 1.28146 17.7275 0.88654C18.5267 0.497456 19.2815 0.282206 19.992 0.244873C20.0125 0.432123 20.0212 0.619373 20.0212 0.804873V0.805456Z" fill="white"/>
</g>
<defs>
<clipPath id="clip0_3_892">
<rect width="28" height="28" fill="white" transform="translate(0 0.244873)"/>
</clipPath>
</defs>
</svg>
