<svg width="41" height="41" viewBox="0 0 41 41" fill="none" xmlns="http://www.w3.org/2000/svg">
<g clip-path="url(#clip0_1_818)">
<path d="M38.7498 9.3259L20.5882 0.558242C20.4272 0.480586 20.2397 0.480586 20.0787 0.558242L1.91711 9.3259C1.71461 9.42363 1.58594 9.62871 1.58594 9.85355V31.1464C1.58594 31.3713 1.71461 31.5764 1.91711 31.6741L20.0787 40.4418C20.1591 40.4806 20.2463 40.5 20.3334 40.5C20.4205 40.5 20.5077 40.4806 20.5882 40.4418L38.7498 31.6741C38.9523 31.5764 39.0809 31.3713 39.0809 31.1464V9.85363C39.0809 9.62863 38.9522 9.42371 38.7498 9.3259ZM20.3334 1.7366L37.1473 9.85355L32.2733 12.2065C32.2424 12.183 32.2098 12.1613 32.1741 12.144L15.4745 4.0823L20.3334 1.7366ZM14.1512 4.7448L30.9405 12.85L27.5019 14.51L10.7195 6.40816L14.1512 4.7448ZM31.3334 13.9615V20.0979L28.1214 21.6486V15.5121L31.3334 13.9615ZM37.9091 30.7788L20.9194 38.9805V18.9889L24.9719 17.0325C25.2634 16.8918 25.3855 16.5416 25.2448 16.2501C25.1041 15.9588 24.7539 15.8364 24.4624 15.9772L20.3334 17.9706L18.7087 17.1862C18.4173 17.0454 18.067 17.1677 17.9263 17.4591C17.7856 17.7505 17.9078 18.1008 18.1992 18.2415L19.7475 18.9889V38.9805L2.75781 30.7786V10.7871L15.6953 17.0328C15.7774 17.0725 15.8642 17.0912 15.9496 17.0912C16.1674 17.0912 16.3766 16.9692 16.4777 16.7599C16.6184 16.4685 16.4962 16.1182 16.2048 15.9775L3.51961 9.85355L9.34031 7.04356L26.9414 15.5407C26.944 15.5443 26.9469 15.5475 26.9495 15.551V22.5821C26.9495 22.7838 27.0532 22.9712 27.224 23.0785C27.3188 23.138 27.427 23.1681 27.5355 23.1681C27.6224 23.1681 27.7095 23.1488 27.7902 23.1098L32.1741 20.9935C32.3766 20.8957 32.5052 20.6907 32.5052 20.4658V13.3959L37.9091 10.7871V30.7788Z" fill="black"/>
<path d="M7.59324 28.5063L4.928 27.2196C4.63644 27.0788 4.28628 27.2011 4.14558 27.4925C4.00487 27.7839 4.12706 28.1342 4.41847 28.2749L7.0837 29.5616C7.16581 29.6012 7.25261 29.62 7.338 29.62C7.55581 29.62 7.76503 29.498 7.86605 29.2887C8.00683 28.9972 7.88464 28.647 7.59324 28.5063Z" fill="black"/>
<path d="M10.0461 26.9096L4.93161 24.4405C4.64013 24.2998 4.28989 24.422 4.14919 24.7135C4.00856 25.0049 4.13075 25.3552 4.42216 25.4959L9.53661 27.965C9.61872 28.0046 9.70552 28.0234 9.79091 28.0234C10.0087 28.0234 10.2179 27.9014 10.319 27.6921C10.4597 27.4005 10.3375 27.0502 10.0461 26.9096Z" fill="black"/>
</g>
<defs>
<clipPath id="clip0_1_818">
<rect width="40" height="40" fill="white" transform="translate(0.333374 0.5)"/>
</clipPath>
</defs>
</svg>
