<svg width="40" height="41" viewBox="0 0 40 41" fill="none" xmlns="http://www.w3.org/2000/svg">
<g clip-path="url(#clip0_1_828)">
<path d="M33.6849 15.7101V14.1723C33.6849 10.4916 32.3824 7.07143 30.021 4.53361C27.6009 1.92857 24.2731 0.5 20.6429 0.5H19.374C15.7437 0.5 12.416 1.92857 9.99581 4.53361C7.63447 7.07143 6.33194 10.4916 6.33194 14.1723V15.7101C3.4664 15.9034 1.18909 18.2899 1.18909 21.2059V23.6092C1.18909 26.6429 3.65968 29.1134 6.69329 29.1134H9.79413C10.3488 29.1134 10.8025 28.6597 10.8025 28.105V16.7017C10.8025 16.1471 10.3488 15.6933 9.79413 15.6933H8.34875V14.1723C8.34875 7.52521 13.0882 2.51681 19.3656 2.51681H20.6345C26.9202 2.51681 31.6513 7.52521 31.6513 14.1723V15.6933H30.2059C29.6513 15.6933 29.1975 16.1471 29.1975 16.7017V28.0966C29.1975 28.6513 29.6513 29.105 30.2059 29.105H31.6177C31.2059 34.3655 27.584 35.584 25.9034 35.8613C25.4412 34.4412 24.1051 33.416 22.5336 33.416H20.0126C18.063 33.416 16.4748 35.0042 16.4748 36.9538C16.4748 38.9034 18.063 40.5 20.0126 40.5H22.542C24.1723 40.5 25.542 39.3908 25.9538 37.895C26.7773 37.7773 28.0798 37.4832 29.374 36.7269C31.1975 35.6597 33.3572 33.4832 33.6429 29.0966C36.5252 28.9202 38.8109 26.5252 38.8109 23.6008V21.1975C38.8193 18.2899 36.5504 15.895 33.6849 15.7101ZM8.80253 27.0882H6.7101C4.78573 27.0882 3.2227 25.5252 3.2227 23.6008V21.1975C3.2227 19.2731 4.78573 17.7101 6.7101 17.7101H8.80253V27.0882ZM22.542 38.4832H20.0126C19.1723 38.4832 18.4916 37.8025 18.4916 36.9622C18.4916 36.1218 19.1723 35.4412 20.0126 35.4412H22.542C23.3824 35.4412 24.063 36.1218 24.063 36.9622C24.063 37.8025 23.3824 38.4832 22.542 38.4832ZM36.8025 23.6008C36.8025 25.5252 35.2395 27.0882 33.3151 27.0882H31.2227V17.7101H33.3151C35.2395 17.7101 36.8025 19.2731 36.8025 21.1975V23.6008Z" fill="#00B307"/>
</g>
<defs>
<clipPath id="clip0_1_828">
<rect width="40" height="40" fill="white" transform="translate(0 0.5)"/>
</clipPath>
</defs>
</svg>
