<svg width="49" height="48" viewBox="0 0 49 48" fill="none" xmlns="http://www.w3.org/2000/svg">
<circle cx="24.5" cy="24" r="23.5" fill="white" stroke="#F2F2F2"/>
<path d="M24.5 16.2493C17 16.2493 14 24.0001 14 24.0001C14 24.0001 17 31.7493 24.5 31.7493C32 31.7493 35 24.0001 35 24.0001C35 24.0001 32 16.2493 24.5 16.2493V16.2493Z" stroke="#002603" stroke-width="1.5" stroke-linecap="round" stroke-linejoin="round"/>
<path d="M24.5 27.75C25.4946 27.75 26.4484 27.3549 27.1517 26.6517C27.8549 25.9484 28.25 24.9946 28.25 24C28.25 23.0054 27.8549 22.0516 27.1517 21.3483C26.4484 20.6451 25.4946 20.25 24.5 20.25C23.5054 20.25 22.5516 20.6451 21.8483 21.3483C21.1451 22.0516 20.75 23.0054 20.75 24C20.75 24.9946 21.1451 25.9484 21.8483 26.6517C22.5516 27.3549 23.5054 27.75 24.5 27.75V27.75Z" stroke="#002603" stroke-width="1.5" stroke-linecap="round" stroke-linejoin="round"/>
</svg>
