<svg width="49" height="48" viewBox="0 0 49 48" fill="none" xmlns="http://www.w3.org/2000/svg">
<g clip-path="url(#clip0_1_807)">
<path d="M11.1396 34.9456C10.7537 34.9456 10.3836 35.0988 10.1107 35.3717C9.83786 35.6446 9.68457 36.0147 9.68457 36.4006C9.68457 36.7864 9.83786 37.1565 10.1107 37.4294C10.3836 37.7023 10.7537 37.8556 11.1396 37.8556C11.5255 37.8556 11.8955 37.7023 12.1684 37.4294C12.4413 37.1565 12.5946 36.7864 12.5946 36.4006C12.5946 36.0147 12.4413 35.6446 12.1684 35.3717C11.8955 35.0988 11.5255 34.9456 11.1396 34.9456Z" fill="#1A1A1A"/>
<path d="M41.1996 34.9456C40.8137 34.9456 40.4437 35.0988 40.1708 35.3717C39.8979 35.6446 39.7446 36.0147 39.7446 36.4006C39.7446 36.7864 39.8979 37.1565 40.1708 37.4294C40.4437 37.7023 40.8137 37.8556 41.1996 37.8556C41.5855 37.8556 41.9556 37.7023 42.2285 37.4294C42.5013 37.1565 42.6546 36.7864 42.6546 36.4006C42.6546 36.0147 42.5013 35.6446 42.2285 35.3717C41.9556 35.0988 41.5855 34.9456 41.1996 34.9456Z" fill="#1A1A1A"/>
<path d="M46.6446 23.946L41.7366 22.311L38.6541 14.2965C38.4374 13.7401 38.0583 13.2617 37.5661 12.9235C37.0739 12.5854 36.4913 12.4032 35.8941 12.4005H23.1876L23.1726 12.225C23.1428 11.8619 22.9769 11.5235 22.7083 11.2773C22.4396 11.0312 22.088 10.8956 21.7236 10.8975H19.3566V10.095C19.3554 9.31104 19.0434 8.55951 18.4888 8.00527C17.9343 7.45104 17.1826 7.13934 16.3986 7.13855C15.6149 7.13974 14.8636 7.45161 14.3094 8.0058C13.7552 8.56 13.4433 9.3113 13.4421 10.095V10.896H11.0766C10.7123 10.8941 10.3606 11.0297 10.092 11.2758C9.82331 11.522 9.65748 11.8604 9.62763 12.2235L9.61263 12.399H2.12163C1.73574 12.399 1.36565 12.5523 1.09279 12.8252C0.81992 13.0981 0.666626 13.4682 0.666626 13.854L0.666626 34.1446C0.666626 34.9456 1.31913 35.5995 2.12163 35.5995H6.75213C6.63584 36.2423 6.66197 36.9027 6.82868 37.5343C6.9954 38.1658 7.29863 38.7531 7.717 39.2547C8.13537 39.7564 8.65869 40.1601 9.25006 40.4375C9.84142 40.7148 10.4864 40.8591 11.1396 40.86C11.793 40.8591 12.4381 40.7148 13.0296 40.4374C13.6211 40.1599 14.1445 39.756 14.5629 39.2543C14.9813 38.7525 15.2845 38.165 15.4511 37.5332C15.6177 36.9015 15.6437 36.2409 15.5271 35.598H36.8121C36.6958 36.2408 36.722 36.9012 36.8887 37.5328C37.0554 38.1643 37.3586 38.7516 37.777 39.2532C38.1954 39.7549 38.7187 40.1586 39.3101 40.4359C39.9014 40.7133 40.5464 40.8576 41.1996 40.8585C41.8709 40.8575 42.5333 40.7051 43.1375 40.4128C43.7417 40.1205 44.2723 39.6957 44.6897 39.17C45.1072 38.6443 45.4007 38.0313 45.5485 37.3765C45.6964 36.7218 45.6947 36.0421 45.5436 35.388L47.0316 34.6441C47.5237 34.4001 47.9377 34.0232 48.2267 33.5561C48.5156 33.089 48.668 32.5503 48.6666 32.001V26.751C48.6669 26.1304 48.4717 25.5254 48.1087 25.0219C47.7458 24.5184 47.2335 24.142 46.6446 23.946ZM38.1156 16.812L40.1766 22.17H37.9491L36.1641 16.812H38.1141H38.1156ZM36.4656 22.17H30.6786C30.4667 22.1697 30.2636 22.0853 30.1137 21.9354C29.9639 21.7856 29.8795 21.5825 29.8791 21.3705V16.812H34.6806L36.4656 22.17ZM14.8506 10.095C14.8506 9.24005 15.5466 8.54405 16.4016 8.54405C17.2566 8.54405 17.9526 9.24005 17.9526 10.095V10.896H14.8491V10.095H14.8506ZM9.65613 28.1295L11.0286 12.3481C11.0294 12.3358 11.0348 12.3244 11.0437 12.316C11.0526 12.3077 11.0644 12.303 11.0766 12.303H13.4421V13.854C13.4421 14.0406 13.5162 14.2196 13.6482 14.3515C13.7801 14.4834 13.959 14.5575 14.1456 14.5575C14.3322 14.5575 14.5111 14.4834 14.6431 14.3515C14.775 14.2196 14.8491 14.0406 14.8491 13.854V12.303H17.9511V13.854C17.9511 14.0406 18.0252 14.2196 18.1572 14.3515C18.2891 14.4834 18.468 14.5575 18.6546 14.5575C18.8412 14.5575 19.0201 14.4834 19.1521 14.3515C19.284 14.2196 19.3581 14.0406 19.3581 13.854V12.303H21.7236C21.7491 12.303 21.7686 12.3226 21.7716 12.3481L23.1441 28.128C23.1441 28.1355 23.1441 28.1505 23.1306 28.1655C23.1156 28.1805 23.1006 28.1805 23.0946 28.1805H9.70563C9.69963 28.1805 9.68463 28.1805 9.66963 28.1655C9.66512 28.1608 9.66172 28.1551 9.65965 28.1489C9.65757 28.1427 9.65688 28.1361 9.65763 28.1295H9.65613ZM11.1396 39.4545C10.3298 39.4538 9.55327 39.1318 8.98047 38.5593C8.40767 37.9867 8.08532 37.2104 8.08413 36.4005C8.08413 34.716 9.45513 33.345 11.1396 33.345C12.8241 33.345 14.1936 34.716 14.1936 36.4005C14.1924 37.2102 13.8703 37.9863 13.2978 38.5587C12.7253 39.1312 11.9492 39.4534 11.1396 39.4545ZM41.1996 39.4545C40.39 39.4534 39.6139 39.1312 39.0414 38.5587C38.469 37.9863 38.1468 37.2102 38.1456 36.4005C38.1456 34.716 39.5151 33.345 41.1996 33.345C42.8841 33.345 44.2551 34.716 44.2551 36.4005C44.2539 37.2104 43.9316 37.9867 43.3588 38.5593C42.786 39.1318 42.0095 39.4538 41.1996 39.4545ZM47.2596 28.182H46.4601C46.3651 28.1777 46.2702 28.1926 46.1811 28.2259C46.092 28.2593 46.0106 28.3103 45.9418 28.376C45.873 28.4417 45.8183 28.5206 45.7809 28.6081C45.7434 28.6955 45.7242 28.7897 45.7242 28.8848C45.7242 28.9799 45.7434 29.074 45.7809 29.1615C45.8183 29.249 45.873 29.3279 45.9418 29.3936C46.0106 29.4593 46.092 29.5103 46.1811 29.5437C46.2702 29.577 46.3651 29.5919 46.4601 29.5875H47.2611V31.9995C47.2611 32.5921 46.9311 33.1245 46.4031 33.3885L45.0111 34.0845C44.6135 33.4302 44.0541 32.8891 43.3868 32.5135C42.7196 32.1378 41.9669 31.9402 41.2011 31.9395C39.5421 31.9395 38.0946 32.8485 37.3251 34.194H15.0141C14.6246 33.5099 14.061 32.941 13.3805 32.545C12.7 32.149 11.9269 31.9402 11.1396 31.9395C9.48213 31.9395 8.03463 32.8485 7.26513 34.194H2.12013C2.10766 34.1937 2.09583 34.1884 2.08715 34.1795C2.07847 34.1705 2.07362 34.1585 2.07363 34.146V29.5875H5.87913C5.97414 29.5919 6.06907 29.577 6.15815 29.5437C6.24724 29.5103 6.32864 29.4593 6.39743 29.3936C6.46623 29.3279 6.52099 29.249 6.5584 29.1615C6.59581 29.074 6.6151 28.9799 6.6151 28.8848C6.6151 28.7897 6.59581 28.6955 6.5584 28.6081C6.52099 28.5206 6.46623 28.4417 6.39743 28.376C6.32864 28.3103 6.24724 28.2593 6.15815 28.2259C6.06907 28.1926 5.97414 28.1777 5.87913 28.182H2.07213V13.854C2.07213 13.8285 2.09463 13.8061 2.12163 13.8061H9.48963L8.25513 28.008C8.23834 28.2087 8.26331 28.4107 8.32846 28.6013C8.39361 28.7918 8.49753 28.9668 8.63367 29.1152C8.7698 29.2636 8.93519 29.3822 9.11943 29.4635C9.30367 29.5448 9.50275 29.587 9.70413 29.5875H23.0946C23.2961 29.587 23.4952 29.5447 23.6795 29.4635C23.8638 29.3822 24.0293 29.2636 24.1656 29.1152C24.3018 28.9669 24.4059 28.7919 24.4712 28.6014C24.5365 28.4108 24.5617 28.2088 24.5451 28.008L23.3091 13.8061H35.8941C36.5316 13.8061 37.1136 14.2065 37.3416 14.8005L37.5741 15.4065H29.1756C28.9893 15.4065 28.8106 15.4805 28.6787 15.6121C28.5468 15.7437 28.4725 15.9222 28.4721 16.1086V21.369C28.4721 22.5855 29.4621 23.5755 30.6786 23.5755H41.0856L46.2006 25.281C46.8336 25.491 47.2611 26.0835 47.2611 26.751V28.182H47.2596Z" fill="#1A1A1A"/>
<path d="M43.4542 28.182H26.9212C26.8261 28.1776 26.7312 28.1926 26.6421 28.2259C26.553 28.2592 26.4716 28.3103 26.4028 28.376C26.3341 28.4417 26.2793 28.5206 26.2419 28.6081C26.2045 28.6955 26.1852 28.7897 26.1852 28.8848C26.1852 28.9799 26.2045 29.074 26.2419 29.1615C26.2793 29.2489 26.3341 29.3279 26.4028 29.3936C26.4716 29.4593 26.553 29.5103 26.6421 29.5437C26.7312 29.577 26.8261 29.5919 26.9212 29.5875H43.4542C43.6349 29.5792 43.8055 29.5015 43.9305 29.3706C44.0554 29.2397 44.1252 29.0657 44.1252 28.8848C44.1252 28.7038 44.0554 28.5298 43.9305 28.3989C43.8055 28.2681 43.6349 28.1904 43.4542 28.182Z" fill="#1A1A1A"/>
</g>
<defs>
<clipPath id="clip0_1_807">
<rect width="48" height="48" fill="white" transform="translate(0.666626)"/>
</clipPath>
</defs>
</svg>
