<svg width="40" height="41" viewBox="0 0 40 41" fill="none" xmlns="http://www.w3.org/2000/svg">
<g clip-path="url(#clip0_1_859)">
<path d="M35.98 35.1678L33.6782 9.22697C33.6368 8.71362 33.2063 8.32447 32.6847 8.32447H27.8327C27.8244 4.01066 24.3137 0.5 19.9999 0.5C15.6861 0.5 12.1754 4.01066 12.1672 8.32447H7.31516C6.80181 8.32447 6.37126 8.71362 6.32158 9.22697L4.01978 35.1678C4.01978 35.2009 4.01978 35.2257 4.01978 35.2589C4.01978 38.1485 6.67761 40.5 9.93988 40.5H30.0599C33.3222 40.5 35.98 38.1485 35.98 35.2589C35.98 35.2257 35.98 35.2009 35.98 35.1678ZM19.9999 2.48717C23.2208 2.48717 25.8372 5.1036 25.8455 8.32447H14.1543C14.1626 5.1036 16.779 2.48717 19.9999 2.48717ZM30.0599 38.5046H9.93988C7.78711 38.5046 6.03178 37.0721 6.00694 35.292L8.22594 10.3116H12.1672V13.7975C12.1672 14.3439 12.6143 14.791 13.1607 14.791C13.7072 14.791 14.1543 14.3439 14.1543 13.7975V10.3116H25.8455V13.7975C25.8455 14.3439 26.2926 14.791 26.8391 14.791C27.3855 14.791 27.8327 14.3439 27.8327 13.7975V10.3116H31.7739L33.9929 35.3002C33.968 37.0721 32.2127 38.5046 30.0599 38.5046Z" fill="#00B307"/>
<path d="M24.1315 21.1831L18.2693 27.0453L15.8764 24.6524C15.4873 24.2632 14.858 24.2632 14.4689 24.6524C14.0797 25.0415 14.0797 25.6708 14.4689 26.06L17.5655 29.1566C17.756 29.3471 18.0126 29.4464 18.2693 29.4464C18.526 29.4464 18.7744 29.3471 18.9731 29.1566L25.539 22.5907C25.9282 22.2015 25.9282 21.5723 25.539 21.1831C25.1499 20.8022 24.5206 20.8022 24.1315 21.1831Z" fill="#00B307"/>
</g>
<defs>
<clipPath id="clip0_1_859">
<rect width="40" height="40" fill="white" transform="translate(0 0.5)"/>
</clipPath>
</defs>
</svg>
