<svg width="20" height="20" viewBox="0 0 20 20" fill="none" xmlns="http://www.w3.org/2000/svg">
<path d="M10.3444 14.9012L14.285 17.3974C14.7888 17.7162 15.4138 17.2418 15.2644 16.6537L14.1263 12.1756C14.0941 12.0508 14.0978 11.9195 14.137 11.7968C14.1761 11.6741 14.2491 11.5649 14.3475 11.4818L17.8813 8.54118C18.345 8.15493 18.1063 7.38431 17.5094 7.34556L12.895 7.04556C12.7708 7.03675 12.6516 6.99283 12.5514 6.91891C12.4511 6.845 12.3739 6.74414 12.3288 6.62806L10.6075 2.29431C10.5607 2.17115 10.4775 2.06514 10.369 1.99034C10.2605 1.91554 10.1318 1.87549 10 1.87549C9.86826 1.87549 9.73959 1.91554 9.6311 1.99034C9.52261 2.06514 9.43941 2.17115 9.39254 2.29431L7.67129 6.62806C7.62624 6.74425 7.54908 6.84525 7.44883 6.91928C7.34858 6.99331 7.22935 7.03732 7.10504 7.04618L2.49067 7.34618C1.89442 7.38431 1.65442 8.15493 2.11879 8.54118L5.65254 11.4824C5.75086 11.5655 5.82377 11.6746 5.86291 11.7972C5.90204 11.9198 5.90581 12.0509 5.87379 12.1756L4.81879 16.3287C4.63942 17.0343 5.39004 17.6037 5.99379 17.2206L9.65629 14.9012C9.75923 14.8357 9.87868 14.801 10.0007 14.801C10.1226 14.801 10.2421 14.8357 10.345 14.9012H10.3444Z" fill="#FF8A00"/>
</svg>
