<svg width="19" height="18" viewBox="0 0 19 18" fill="none" xmlns="http://www.w3.org/2000/svg">
<path d="M9.80996 13.4111L13.3565 15.6577C13.8099 15.9446 14.3724 15.5177 14.238 14.9884L13.2136 10.9581C13.1847 10.8458 13.1881 10.7276 13.2233 10.6172C13.2585 10.5067 13.3242 10.4085 13.4128 10.3337L16.5932 7.68711C17.0105 7.33949 16.7956 6.64593 16.2585 6.61105L12.1055 6.34105C11.9937 6.33312 11.8865 6.29359 11.7962 6.22707C11.706 6.16055 11.6365 6.06977 11.5959 5.9653L10.0468 2.06493C10.0046 1.95408 9.92972 1.85867 9.83207 1.79136C9.73443 1.72404 9.61863 1.68799 9.50002 1.68799C9.38142 1.68799 9.26562 1.72404 9.16798 1.79136C9.07033 1.85867 8.99546 1.95408 8.95327 2.06493L7.40415 5.9653C7.3636 6.06988 7.29416 6.16077 7.20394 6.2274C7.11371 6.29402 7.0064 6.33364 6.89453 6.34161L2.74159 6.61161C2.20496 6.64593 1.98896 7.33949 2.4069 7.68711L5.58727 10.3342C5.67576 10.409 5.74138 10.5072 5.7766 10.6175C5.81182 10.7278 5.81522 10.8459 5.7864 10.9581L4.8369 14.6959C4.67546 15.3309 5.35103 15.8434 5.8944 15.4986L9.19065 13.4111C9.28329 13.3522 9.3908 13.3209 9.50059 13.3209C9.61037 13.3209 9.71788 13.3522 9.81052 13.4111H9.80996Z" fill="#FF8A00"/>
</svg>
