<svg width="16" height="16" viewBox="0 0 16 16" fill="none" xmlns="http://www.w3.org/2000/svg">
<path d="M8.27554 11.921L11.428 13.918C11.831 14.173 12.331 13.7935 12.2115 13.323L11.301 9.74051C11.2753 9.64072 11.2783 9.5357 11.3096 9.43752C11.3409 9.33934 11.3993 9.25199 11.478 9.18551L14.305 6.83301C14.676 6.52401 14.485 5.90751 14.0075 5.87651L10.316 5.63651C10.2166 5.62946 10.1213 5.59433 10.0411 5.5352C9.96091 5.47607 9.89916 5.39538 9.86304 5.30251L8.48604 1.83551C8.44854 1.73698 8.38199 1.65218 8.29519 1.59234C8.20839 1.5325 8.10546 1.50046 8.00004 1.50046C7.89462 1.50046 7.79168 1.5325 7.70489 1.59234C7.61809 1.65218 7.55153 1.73698 7.51404 1.83551L6.13704 5.30251C6.10099 5.39547 6.03927 5.47627 5.95907 5.53549C5.87887 5.59471 5.78348 5.62992 5.68404 5.63701L1.99254 5.87701C1.51554 5.90751 1.32354 6.52401 1.69504 6.83301L4.52204 9.18601C4.60069 9.25245 4.65902 9.33971 4.69033 9.43779C4.72164 9.53588 4.72466 9.6408 4.69904 9.74051L3.85504 13.063C3.71154 13.6275 4.31204 14.083 4.79504 13.7765L7.72504 11.921C7.80739 11.8687 7.90295 11.8409 8.00054 11.8409C8.09812 11.8409 8.19369 11.8687 8.27604 11.921H8.27554Z" fill="#FF8A00"/>
</svg>
