<svg width="12" height="12" viewBox="0 0 12 12" fill="none" xmlns="http://www.w3.org/2000/svg">
<path d="M6.2066 8.94075L8.57098 10.4385C8.87323 10.6298 9.24823 10.3451 9.1586 9.99225L8.47572 7.30538C8.45644 7.23054 8.45866 7.15177 8.48214 7.07813C8.50563 7.0045 8.54942 6.93899 8.60847 6.88913L10.7287 5.12475C11.007 4.893 10.8637 4.43063 10.5056 4.40738L7.73697 4.22738C7.66243 4.22209 7.59093 4.19574 7.53078 4.15139C7.47063 4.10704 7.42431 4.04652 7.39722 3.97688L6.36448 1.37663C6.33635 1.30273 6.28644 1.23913 6.22134 1.19425C6.15624 1.14937 6.07904 1.12534 5.99998 1.12534C5.92091 1.12534 5.84371 1.14937 5.77861 1.19425C5.71351 1.23913 5.6636 1.30273 5.63548 1.37663L4.60273 3.97688C4.57569 4.04659 4.5294 4.10719 4.46925 4.15161C4.4091 4.19603 4.33756 4.22243 4.26298 4.22775L1.49435 4.40775C1.1366 4.43063 0.992601 4.893 1.27123 5.12475L3.39148 6.8895C3.45047 6.93933 3.49421 7.00478 3.51769 7.07834C3.54118 7.1519 3.54344 7.23059 3.52423 7.30538L2.89123 9.79725C2.7836 10.2206 3.23398 10.5623 3.59623 10.3324L5.79373 8.94075C5.85549 8.90149 5.92716 8.88063 6.00035 8.88063C6.07354 8.88063 6.14521 8.90149 6.20697 8.94075H6.2066Z" fill="#FF8A00"/>
</svg>
