<svg width="41" height="41" viewBox="0 0 41 41" fill="none" xmlns="http://www.w3.org/2000/svg">
<g clip-path="url(#clip0_1_813)">
<path d="M39.7083 6.06505C39.7017 5.94135 39.656 5.82295 39.5778 5.72683C39.4997 5.63072 39.3931 5.56183 39.2733 5.53005L20.4708 0.520047C20.3717 0.493643 20.2674 0.493643 20.1683 0.520047L1.39209 5.53005C1.27278 5.56198 1.16661 5.63078 1.08872 5.72663C1.01083 5.82248 0.965196 5.94048 0.958336 6.0638C0.945836 6.30005 0.664586 11.8875 2.86209 18.9513C4.15334 23.1038 6.03959 26.8938 8.46584 30.2188C11.5021 34.3775 15.3958 37.8113 20.0383 40.425C20.1241 40.4732 20.2205 40.499 20.3188 40.5C20.4171 40.5011 20.5141 40.4775 20.6008 40.4313C25.2521 37.9613 29.1521 34.6138 32.1933 30.485C34.6233 27.185 36.5108 23.3825 37.8033 19.185C40.0021 12.0425 39.7208 6.30505 39.7083 6.0638V6.06505ZM36.6708 18.8788C35.4146 22.945 33.5858 26.6225 31.2346 29.81C28.4921 33.5275 25.0246 36.5888 20.9196 38.9188V35.905C26.2421 32.5438 30.2571 27.7875 32.8508 21.76C34.9883 16.7975 35.6846 12.0863 35.8921 9.0088C35.9013 8.87312 35.8631 8.73845 35.784 8.62786C35.7048 8.51726 35.5897 8.43761 35.4583 8.40255L34.2633 8.0838C34.1145 8.0476 33.9574 8.07111 33.8256 8.1493C33.6939 8.22749 33.598 8.35414 33.5584 8.50216C33.5189 8.65017 33.5389 8.80778 33.6141 8.94125C33.6893 9.07472 33.8138 9.17345 33.9608 9.2163L34.6858 9.41005C34.4471 12.3938 33.7371 16.7375 31.7746 21.2975C29.2896 27.07 25.4558 31.6313 20.3796 34.86C19.8696 34.5225 19.3696 34.1725 18.8858 33.8125C18.7609 33.725 18.6068 33.6896 18.4562 33.7139C18.3056 33.7382 18.1704 33.8202 18.0793 33.9426C17.9882 34.0649 17.9483 34.2179 17.9682 34.3692C17.9881 34.5204 18.0662 34.6579 18.1858 34.7525C18.6908 35.1275 19.2146 35.495 19.7483 35.8463V38.9C15.6396 36.4425 12.1708 33.3 9.42834 29.55C7.07834 26.335 5.24959 22.6663 3.99459 18.645C2.18709 12.8563 2.09834 7.97505 2.11709 6.55005L19.7471 1.84505V4.5213L5.21709 8.40005C5.08524 8.43519 4.96979 8.51521 4.89061 8.62633C4.81143 8.73745 4.7735 8.87271 4.78334 9.0088C4.93459 11.1263 5.36084 14.4213 6.53084 18.0913C8.46584 24.1613 11.7146 29.2238 16.1883 33.1413C16.2462 33.1923 16.3136 33.2313 16.3866 33.2561C16.4597 33.2809 16.5369 33.2909 16.6138 33.2857C16.6908 33.2805 16.7659 33.26 16.8349 33.2256C16.9039 33.1912 16.9654 33.1434 17.0158 33.085C17.1179 32.9681 17.1695 32.8154 17.1592 32.6605C17.1489 32.5057 17.0775 32.3612 16.9608 32.2588C12.6496 28.4838 9.51709 23.5988 7.64834 17.7363C6.7908 15.0296 6.23493 12.2364 5.99084 9.40755L20.3196 5.58255L31.4283 8.5438C31.5036 8.56645 31.5826 8.57375 31.6608 8.56525C31.7389 8.55675 31.8145 8.53263 31.8831 8.49432C31.9517 8.45601 32.012 8.4043 32.0602 8.34225C32.1084 8.2802 32.1437 8.20909 32.1639 8.13314C32.1841 8.0572 32.1888 7.97796 32.1778 7.90015C32.1668 7.82234 32.1402 7.74754 32.0997 7.6802C32.0592 7.61286 32.0055 7.55435 31.9419 7.50816C31.8784 7.46196 31.8062 7.42902 31.7296 7.4113L20.9208 4.5288V1.85255L38.5496 6.55005C38.5683 8.00005 38.4833 13.0113 36.6708 18.8788Z" fill="#1A1A1A"/>
<path d="M29.1496 14.1926C28.9795 14.021 28.777 13.8849 28.5538 13.7922C28.3306 13.6995 28.0913 13.6521 27.8496 13.6526C27.6081 13.6519 27.3688 13.6992 27.1456 13.7916C26.9225 13.8841 26.7199 14.02 26.5496 14.1913L19.0809 21.6601L15.0034 17.5826C14.833 17.4115 14.6304 17.2758 14.4072 17.1836C14.1841 17.0913 13.9449 17.0442 13.7034 17.0451C13.4619 17.0442 13.2227 17.0913 12.9995 17.1836C12.7764 17.2758 12.5737 17.4115 12.4034 17.5826C12.2321 17.7529 12.0962 17.9555 12.0038 18.1786C11.9113 18.4018 11.864 18.641 11.8646 18.8826C11.8646 19.3738 12.0559 19.8363 12.4021 20.1826L17.7809 25.5601C17.9511 25.7315 18.1537 25.8673 18.3769 25.9598C18.6 26.0523 18.8393 26.0995 19.0809 26.0988C19.3224 26.0997 19.5616 26.0527 19.7848 25.9604C20.0079 25.8681 20.2105 25.7325 20.3809 25.5613L29.1496 16.7926C29.4971 16.4451 29.6871 15.9826 29.6871 15.4926C29.688 15.2511 29.6409 15.0119 29.5487 14.7887C29.4564 14.5656 29.3208 14.3629 29.1496 14.1926ZM28.3209 15.9626L19.5521 24.7313C19.4906 24.7939 19.4172 24.8435 19.3363 24.8774C19.2554 24.9113 19.1686 24.9287 19.0809 24.9287C18.9932 24.9287 18.9063 24.9113 18.8254 24.8774C18.7445 24.8435 18.6712 24.7939 18.6096 24.7313L13.2321 19.3538C13.1698 19.2922 13.1203 19.2188 13.0865 19.138C13.0527 19.0571 13.0353 18.9703 13.0353 18.8826C13.0353 18.7949 13.0527 18.7081 13.0865 18.6272C13.1203 18.5463 13.1698 18.473 13.2321 18.4113C13.2937 18.3488 13.367 18.2992 13.4479 18.2653C13.5288 18.2314 13.6157 18.214 13.7034 18.214C13.7911 18.214 13.8779 18.2314 13.9588 18.2653C14.0397 18.2992 14.1131 18.3488 14.1746 18.4113L18.6659 22.9026C18.8959 23.1313 19.2659 23.1313 19.4946 22.9026L27.3784 15.0201C27.44 14.9577 27.5134 14.9082 27.5943 14.8744C27.6752 14.8406 27.762 14.8232 27.8496 14.8232C27.9373 14.8232 28.0241 14.8406 28.105 14.8744C28.1859 14.9082 28.2593 14.9577 28.3209 15.0201C28.3832 15.0817 28.4328 15.1551 28.4665 15.236C28.5003 15.3169 28.5177 15.4037 28.5177 15.4913C28.5177 15.579 28.5003 15.6658 28.4665 15.7467C28.4328 15.8276 28.3832 15.901 28.3209 15.9626Z" fill="#1A1A1A"/>
</g>
<defs>
<clipPath id="clip0_1_813">
<rect width="40" height="40" fill="white" transform="translate(0.333374 0.5)"/>
</clipPath>
</defs>
</svg>
